G04 #@! TF.FileFunction,Copper,L2,Bot,Signal*
%FSLAX46Y46*%
G04 Gerber Fmt 4.6, Leading zero omitted, Abs format (unit mm)*
G04 Created by KiCad (PCBNEW 4.0.1-stable) date 19/01/2016 21:10:36*
%MOMM*%
G01*
G04 APERTURE LIST*
%ADD10C,0.100000*%
%ADD11C,1.524000*%
%ADD12C,3.600000*%
%ADD13R,1.727200X2.032000*%
%ADD14O,1.727200X2.032000*%
%ADD15C,0.600000*%
%ADD16C,0.254000*%
G04 APERTURE END LIST*
D10*
D11*
X153035000Y-97155000D03*
X151765000Y-99695000D03*
X150495000Y-97155000D03*
X149225000Y-99695000D03*
D12*
X147320000Y-106045000D03*
X154940000Y-106045000D03*
D13*
X169545000Y-87630000D03*
D14*
X167005000Y-87630000D03*
X164465000Y-87630000D03*
X161925000Y-87630000D03*
D13*
X154940000Y-87630000D03*
D14*
X152400000Y-87630000D03*
X149860000Y-87630000D03*
X147320000Y-87630000D03*
D11*
X165735000Y-97155000D03*
X164465000Y-99695000D03*
X163195000Y-97155000D03*
X161925000Y-99695000D03*
D12*
X160020000Y-106045000D03*
X167640000Y-106045000D03*
D15*
X165735000Y-97155000D02*
X167005000Y-97155000D01*
X169545000Y-94615000D02*
X169545000Y-87630000D01*
X167005000Y-97155000D02*
X169545000Y-94615000D01*
X165735000Y-97155000D02*
X166370000Y-97155000D01*
X167005000Y-87630000D02*
X167005000Y-90805000D01*
X164465000Y-93345000D02*
X164465000Y-99695000D01*
X167005000Y-90805000D02*
X164465000Y-93345000D01*
X163195000Y-97155000D02*
X163195000Y-89535000D01*
X163195000Y-88900000D02*
X164465000Y-87630000D01*
X163195000Y-89535000D02*
X163195000Y-88900000D01*
X161925000Y-99695000D02*
X160655000Y-98425000D01*
X160655000Y-88900000D02*
X161925000Y-87630000D01*
X160655000Y-89535000D02*
X160655000Y-88900000D01*
X160655000Y-98425000D02*
X160655000Y-89535000D01*
X147320000Y-87630000D02*
X147320000Y-85725000D01*
X154305000Y-85090000D02*
X154940000Y-85725000D01*
X147955000Y-85090000D02*
X154305000Y-85090000D01*
X147320000Y-85725000D02*
X147955000Y-85090000D01*
X153035000Y-97155000D02*
X153035000Y-94615000D01*
X154940000Y-92710000D02*
X154940000Y-87630000D01*
X153035000Y-94615000D02*
X154940000Y-92710000D01*
X154940000Y-85725000D02*
X154940000Y-87630000D01*
X149860000Y-87630000D02*
X149860000Y-92710000D01*
X152400000Y-87630000D02*
X152400000Y-90170000D01*
X149860000Y-92710000D02*
X151130000Y-91440000D01*
X152400000Y-90170000D02*
X151130000Y-91440000D01*
X151765000Y-99695000D02*
X151765000Y-100330000D01*
X151765000Y-100330000D02*
X150495000Y-101600000D01*
X150495000Y-101600000D02*
X149225000Y-101600000D01*
X148590000Y-93980000D02*
X149860000Y-92710000D01*
X146050000Y-96520000D02*
X148590000Y-93980000D01*
X146050000Y-100330000D02*
X146050000Y-96520000D01*
X147320000Y-101600000D02*
X146050000Y-100330000D01*
X149225000Y-101600000D02*
X147320000Y-101600000D01*
D16*
G36*
X170669050Y-79184593D02*
X170480500Y-80132500D01*
X170669050Y-81080407D01*
X171205997Y-81884003D01*
X172009593Y-82420950D01*
X172957500Y-82609500D01*
X173905407Y-82420950D01*
X174430500Y-82070093D01*
X174430500Y-104514907D01*
X173905407Y-104164050D01*
X172957500Y-103975500D01*
X172009593Y-104164050D01*
X171205997Y-104700997D01*
X170669050Y-105504593D01*
X170480500Y-106452500D01*
X170669050Y-107400407D01*
X170951418Y-107823000D01*
X169718824Y-107823000D01*
X169950490Y-107591738D01*
X170366526Y-106589814D01*
X170367472Y-105504946D01*
X169953186Y-104502297D01*
X169186738Y-103734510D01*
X168184814Y-103318474D01*
X167099946Y-103317528D01*
X166097297Y-103731814D01*
X165329510Y-104498262D01*
X164913474Y-105500186D01*
X164912528Y-106585054D01*
X165326814Y-107587703D01*
X165561701Y-107823000D01*
X162098824Y-107823000D01*
X162330490Y-107591738D01*
X162746526Y-106589814D01*
X162747472Y-105504946D01*
X162333186Y-104502297D01*
X161566738Y-103734510D01*
X160564814Y-103318474D01*
X159479946Y-103317528D01*
X158477297Y-103731814D01*
X157709510Y-104498262D01*
X157479949Y-105051105D01*
X157253186Y-104502297D01*
X156486738Y-103734510D01*
X155484814Y-103318474D01*
X154399946Y-103317528D01*
X153397297Y-103731814D01*
X152629510Y-104498262D01*
X152213474Y-105500186D01*
X152212528Y-106585054D01*
X152626814Y-107587703D01*
X152861701Y-107823000D01*
X149398824Y-107823000D01*
X149630490Y-107591738D01*
X150046526Y-106589814D01*
X150047472Y-105504946D01*
X149633186Y-104502297D01*
X148866738Y-103734510D01*
X147864814Y-103318474D01*
X146779946Y-103317528D01*
X145777297Y-103731814D01*
X145009510Y-104498262D01*
X144654617Y-105352938D01*
X144219003Y-104700997D01*
X143415407Y-104164050D01*
X142467500Y-103975500D01*
X141519593Y-104164050D01*
X140994500Y-104514907D01*
X140994500Y-87439534D01*
X145529400Y-87439534D01*
X145529400Y-87820466D01*
X145665701Y-88505699D01*
X146053855Y-89086611D01*
X146634767Y-89474765D01*
X147320000Y-89611066D01*
X148005233Y-89474765D01*
X148586145Y-89086611D01*
X148785711Y-88787940D01*
X148957964Y-88980732D01*
X149485209Y-89234709D01*
X149500974Y-89237358D01*
X149733000Y-89116217D01*
X149733000Y-87757000D01*
X149987000Y-87757000D01*
X149987000Y-89116217D01*
X150219026Y-89237358D01*
X150234791Y-89234709D01*
X150762036Y-88980732D01*
X151130000Y-88568892D01*
X151497964Y-88980732D01*
X152025209Y-89234709D01*
X152040974Y-89237358D01*
X152273000Y-89116217D01*
X152273000Y-87757000D01*
X149987000Y-87757000D01*
X149733000Y-87757000D01*
X149713000Y-87757000D01*
X149713000Y-87503000D01*
X149733000Y-87503000D01*
X149733000Y-87483000D01*
X149987000Y-87483000D01*
X149987000Y-87503000D01*
X152273000Y-87503000D01*
X152273000Y-87483000D01*
X152527000Y-87483000D01*
X152527000Y-87503000D01*
X152547000Y-87503000D01*
X152547000Y-87757000D01*
X152527000Y-87757000D01*
X152527000Y-89116217D01*
X152759026Y-89237358D01*
X152774791Y-89234709D01*
X153216678Y-89021850D01*
X153398901Y-89305033D01*
X153708679Y-89516696D01*
X153713000Y-89517571D01*
X153713000Y-92201760D01*
X152167380Y-93747380D01*
X151901400Y-94145447D01*
X151808000Y-94615000D01*
X151808000Y-95993336D01*
X151764868Y-96036393D01*
X151452991Y-95723971D01*
X150832437Y-95466294D01*
X150160511Y-95465708D01*
X149539509Y-95722301D01*
X149063971Y-96197009D01*
X148806294Y-96817563D01*
X148805708Y-97489489D01*
X149019052Y-98005820D01*
X148890511Y-98005708D01*
X148269509Y-98262301D01*
X147793971Y-98737009D01*
X147536294Y-99357563D01*
X147535708Y-100029489D01*
X147792301Y-100650491D01*
X148267009Y-101126029D01*
X148887563Y-101383706D01*
X149559489Y-101384292D01*
X150180491Y-101127699D01*
X150633768Y-100675213D01*
X150964392Y-100675213D01*
X151033857Y-100917397D01*
X151557302Y-101104144D01*
X152112368Y-101076362D01*
X152496143Y-100917397D01*
X152565608Y-100675213D01*
X151765000Y-99874605D01*
X150964392Y-100675213D01*
X150633768Y-100675213D01*
X150656029Y-100652991D01*
X150728128Y-100479357D01*
X150784787Y-100495608D01*
X151585395Y-99695000D01*
X151571253Y-99680858D01*
X151750858Y-99501253D01*
X151765000Y-99515395D01*
X151779143Y-99501253D01*
X151958748Y-99680858D01*
X151944605Y-99695000D01*
X152745213Y-100495608D01*
X152987397Y-100426143D01*
X153174144Y-99902698D01*
X153146362Y-99347632D01*
X152987397Y-98963857D01*
X152745215Y-98894393D01*
X152795816Y-98843792D01*
X153369489Y-98844292D01*
X153990491Y-98587699D01*
X154466029Y-98112991D01*
X154723706Y-97492437D01*
X154724292Y-96820511D01*
X154467699Y-96199509D01*
X154262000Y-95993450D01*
X154262000Y-95123240D01*
X155807620Y-93577620D01*
X155934320Y-93388000D01*
X156073600Y-93179553D01*
X156167000Y-92710000D01*
X156167000Y-89513733D01*
X156462633Y-89323499D01*
X156674296Y-89013721D01*
X156697324Y-88900000D01*
X159428000Y-88900000D01*
X159428000Y-98425000D01*
X159521400Y-98894553D01*
X159742497Y-99225448D01*
X159787380Y-99292620D01*
X160235959Y-99741199D01*
X160235708Y-100029489D01*
X160492301Y-100650491D01*
X160967009Y-101126029D01*
X161587563Y-101383706D01*
X162259489Y-101384292D01*
X162880491Y-101127699D01*
X163195132Y-100813607D01*
X163507009Y-101126029D01*
X164127563Y-101383706D01*
X164799489Y-101384292D01*
X165420491Y-101127699D01*
X165896029Y-100652991D01*
X166153706Y-100032437D01*
X166154292Y-99360511D01*
X165940948Y-98844180D01*
X166069489Y-98844292D01*
X166690491Y-98587699D01*
X166896550Y-98382000D01*
X167005000Y-98382000D01*
X167474553Y-98288600D01*
X167872620Y-98022620D01*
X170412620Y-95482620D01*
X170423920Y-95465708D01*
X170678600Y-95084553D01*
X170772000Y-94615000D01*
X170772000Y-89513733D01*
X171067633Y-89323499D01*
X171279296Y-89013721D01*
X171353761Y-88646000D01*
X171353761Y-86614000D01*
X171289122Y-86270474D01*
X171086099Y-85954967D01*
X170776321Y-85743304D01*
X170408600Y-85668839D01*
X168681400Y-85668839D01*
X168337874Y-85733478D01*
X168022367Y-85936501D01*
X167989220Y-85985013D01*
X167690233Y-85785235D01*
X167005000Y-85648934D01*
X166319767Y-85785235D01*
X165738855Y-86173389D01*
X165735000Y-86179158D01*
X165731145Y-86173389D01*
X165150233Y-85785235D01*
X164465000Y-85648934D01*
X163779767Y-85785235D01*
X163198855Y-86173389D01*
X163195000Y-86179158D01*
X163191145Y-86173389D01*
X162610233Y-85785235D01*
X161925000Y-85648934D01*
X161239767Y-85785235D01*
X160658855Y-86173389D01*
X160270701Y-86754301D01*
X160134400Y-87439534D01*
X160134400Y-87685360D01*
X159787380Y-88032380D01*
X159521400Y-88430447D01*
X159428000Y-88900000D01*
X156697324Y-88900000D01*
X156748761Y-88646000D01*
X156748761Y-86614000D01*
X156684122Y-86270474D01*
X156481099Y-85954967D01*
X156171321Y-85743304D01*
X156167000Y-85742429D01*
X156167000Y-85725000D01*
X156134091Y-85559553D01*
X156073601Y-85255448D01*
X155807620Y-84857380D01*
X155172620Y-84222380D01*
X154774553Y-83956400D01*
X154305000Y-83863000D01*
X147955000Y-83863000D01*
X147485448Y-83956399D01*
X147087380Y-84222380D01*
X146452380Y-84857380D01*
X146186400Y-85255447D01*
X146093000Y-85725000D01*
X146093000Y-86147233D01*
X146053855Y-86173389D01*
X145665701Y-86754301D01*
X145529400Y-87439534D01*
X140994500Y-87439534D01*
X140994500Y-82070093D01*
X141519593Y-82420950D01*
X142467500Y-82609500D01*
X143415407Y-82420950D01*
X144219003Y-81884003D01*
X144755950Y-81080407D01*
X144944500Y-80132500D01*
X144755950Y-79184593D01*
X144405093Y-78659500D01*
X171019907Y-78659500D01*
X170669050Y-79184593D01*
X170669050Y-79184593D01*
G37*
X170669050Y-79184593D02*
X170480500Y-80132500D01*
X170669050Y-81080407D01*
X171205997Y-81884003D01*
X172009593Y-82420950D01*
X172957500Y-82609500D01*
X173905407Y-82420950D01*
X174430500Y-82070093D01*
X174430500Y-104514907D01*
X173905407Y-104164050D01*
X172957500Y-103975500D01*
X172009593Y-104164050D01*
X171205997Y-104700997D01*
X170669050Y-105504593D01*
X170480500Y-106452500D01*
X170669050Y-107400407D01*
X170951418Y-107823000D01*
X169718824Y-107823000D01*
X169950490Y-107591738D01*
X170366526Y-106589814D01*
X170367472Y-105504946D01*
X169953186Y-104502297D01*
X169186738Y-103734510D01*
X168184814Y-103318474D01*
X167099946Y-103317528D01*
X166097297Y-103731814D01*
X165329510Y-104498262D01*
X164913474Y-105500186D01*
X164912528Y-106585054D01*
X165326814Y-107587703D01*
X165561701Y-107823000D01*
X162098824Y-107823000D01*
X162330490Y-107591738D01*
X162746526Y-106589814D01*
X162747472Y-105504946D01*
X162333186Y-104502297D01*
X161566738Y-103734510D01*
X160564814Y-103318474D01*
X159479946Y-103317528D01*
X158477297Y-103731814D01*
X157709510Y-104498262D01*
X157479949Y-105051105D01*
X157253186Y-104502297D01*
X156486738Y-103734510D01*
X155484814Y-103318474D01*
X154399946Y-103317528D01*
X153397297Y-103731814D01*
X152629510Y-104498262D01*
X152213474Y-105500186D01*
X152212528Y-106585054D01*
X152626814Y-107587703D01*
X152861701Y-107823000D01*
X149398824Y-107823000D01*
X149630490Y-107591738D01*
X150046526Y-106589814D01*
X150047472Y-105504946D01*
X149633186Y-104502297D01*
X148866738Y-103734510D01*
X147864814Y-103318474D01*
X146779946Y-103317528D01*
X145777297Y-103731814D01*
X145009510Y-104498262D01*
X144654617Y-105352938D01*
X144219003Y-104700997D01*
X143415407Y-104164050D01*
X142467500Y-103975500D01*
X141519593Y-104164050D01*
X140994500Y-104514907D01*
X140994500Y-87439534D01*
X145529400Y-87439534D01*
X145529400Y-87820466D01*
X145665701Y-88505699D01*
X146053855Y-89086611D01*
X146634767Y-89474765D01*
X147320000Y-89611066D01*
X148005233Y-89474765D01*
X148586145Y-89086611D01*
X148785711Y-88787940D01*
X148957964Y-88980732D01*
X149485209Y-89234709D01*
X149500974Y-89237358D01*
X149733000Y-89116217D01*
X149733000Y-87757000D01*
X149987000Y-87757000D01*
X149987000Y-89116217D01*
X150219026Y-89237358D01*
X150234791Y-89234709D01*
X150762036Y-88980732D01*
X151130000Y-88568892D01*
X151497964Y-88980732D01*
X152025209Y-89234709D01*
X152040974Y-89237358D01*
X152273000Y-89116217D01*
X152273000Y-87757000D01*
X149987000Y-87757000D01*
X149733000Y-87757000D01*
X149713000Y-87757000D01*
X149713000Y-87503000D01*
X149733000Y-87503000D01*
X149733000Y-87483000D01*
X149987000Y-87483000D01*
X149987000Y-87503000D01*
X152273000Y-87503000D01*
X152273000Y-87483000D01*
X152527000Y-87483000D01*
X152527000Y-87503000D01*
X152547000Y-87503000D01*
X152547000Y-87757000D01*
X152527000Y-87757000D01*
X152527000Y-89116217D01*
X152759026Y-89237358D01*
X152774791Y-89234709D01*
X153216678Y-89021850D01*
X153398901Y-89305033D01*
X153708679Y-89516696D01*
X153713000Y-89517571D01*
X153713000Y-92201760D01*
X152167380Y-93747380D01*
X151901400Y-94145447D01*
X151808000Y-94615000D01*
X151808000Y-95993336D01*
X151764868Y-96036393D01*
X151452991Y-95723971D01*
X150832437Y-95466294D01*
X150160511Y-95465708D01*
X149539509Y-95722301D01*
X149063971Y-96197009D01*
X148806294Y-96817563D01*
X148805708Y-97489489D01*
X149019052Y-98005820D01*
X148890511Y-98005708D01*
X148269509Y-98262301D01*
X147793971Y-98737009D01*
X147536294Y-99357563D01*
X147535708Y-100029489D01*
X147792301Y-100650491D01*
X148267009Y-101126029D01*
X148887563Y-101383706D01*
X149559489Y-101384292D01*
X150180491Y-101127699D01*
X150633768Y-100675213D01*
X150964392Y-100675213D01*
X151033857Y-100917397D01*
X151557302Y-101104144D01*
X152112368Y-101076362D01*
X152496143Y-100917397D01*
X152565608Y-100675213D01*
X151765000Y-99874605D01*
X150964392Y-100675213D01*
X150633768Y-100675213D01*
X150656029Y-100652991D01*
X150728128Y-100479357D01*
X150784787Y-100495608D01*
X151585395Y-99695000D01*
X151571253Y-99680858D01*
X151750858Y-99501253D01*
X151765000Y-99515395D01*
X151779143Y-99501253D01*
X151958748Y-99680858D01*
X151944605Y-99695000D01*
X152745213Y-100495608D01*
X152987397Y-100426143D01*
X153174144Y-99902698D01*
X153146362Y-99347632D01*
X152987397Y-98963857D01*
X152745215Y-98894393D01*
X152795816Y-98843792D01*
X153369489Y-98844292D01*
X153990491Y-98587699D01*
X154466029Y-98112991D01*
X154723706Y-97492437D01*
X154724292Y-96820511D01*
X154467699Y-96199509D01*
X154262000Y-95993450D01*
X154262000Y-95123240D01*
X155807620Y-93577620D01*
X155934320Y-93388000D01*
X156073600Y-93179553D01*
X156167000Y-92710000D01*
X156167000Y-89513733D01*
X156462633Y-89323499D01*
X156674296Y-89013721D01*
X156697324Y-88900000D01*
X159428000Y-88900000D01*
X159428000Y-98425000D01*
X159521400Y-98894553D01*
X159742497Y-99225448D01*
X159787380Y-99292620D01*
X160235959Y-99741199D01*
X160235708Y-100029489D01*
X160492301Y-100650491D01*
X160967009Y-101126029D01*
X161587563Y-101383706D01*
X162259489Y-101384292D01*
X162880491Y-101127699D01*
X163195132Y-100813607D01*
X163507009Y-101126029D01*
X164127563Y-101383706D01*
X164799489Y-101384292D01*
X165420491Y-101127699D01*
X165896029Y-100652991D01*
X166153706Y-100032437D01*
X166154292Y-99360511D01*
X165940948Y-98844180D01*
X166069489Y-98844292D01*
X166690491Y-98587699D01*
X166896550Y-98382000D01*
X167005000Y-98382000D01*
X167474553Y-98288600D01*
X167872620Y-98022620D01*
X170412620Y-95482620D01*
X170423920Y-95465708D01*
X170678600Y-95084553D01*
X170772000Y-94615000D01*
X170772000Y-89513733D01*
X171067633Y-89323499D01*
X171279296Y-89013721D01*
X171353761Y-88646000D01*
X171353761Y-86614000D01*
X171289122Y-86270474D01*
X171086099Y-85954967D01*
X170776321Y-85743304D01*
X170408600Y-85668839D01*
X168681400Y-85668839D01*
X168337874Y-85733478D01*
X168022367Y-85936501D01*
X167989220Y-85985013D01*
X167690233Y-85785235D01*
X167005000Y-85648934D01*
X166319767Y-85785235D01*
X165738855Y-86173389D01*
X165735000Y-86179158D01*
X165731145Y-86173389D01*
X165150233Y-85785235D01*
X164465000Y-85648934D01*
X163779767Y-85785235D01*
X163198855Y-86173389D01*
X163195000Y-86179158D01*
X163191145Y-86173389D01*
X162610233Y-85785235D01*
X161925000Y-85648934D01*
X161239767Y-85785235D01*
X160658855Y-86173389D01*
X160270701Y-86754301D01*
X160134400Y-87439534D01*
X160134400Y-87685360D01*
X159787380Y-88032380D01*
X159521400Y-88430447D01*
X159428000Y-88900000D01*
X156697324Y-88900000D01*
X156748761Y-88646000D01*
X156748761Y-86614000D01*
X156684122Y-86270474D01*
X156481099Y-85954967D01*
X156171321Y-85743304D01*
X156167000Y-85742429D01*
X156167000Y-85725000D01*
X156134091Y-85559553D01*
X156073601Y-85255448D01*
X155807620Y-84857380D01*
X155172620Y-84222380D01*
X154774553Y-83956400D01*
X154305000Y-83863000D01*
X147955000Y-83863000D01*
X147485448Y-83956399D01*
X147087380Y-84222380D01*
X146452380Y-84857380D01*
X146186400Y-85255447D01*
X146093000Y-85725000D01*
X146093000Y-86147233D01*
X146053855Y-86173389D01*
X145665701Y-86754301D01*
X145529400Y-87439534D01*
X140994500Y-87439534D01*
X140994500Y-82070093D01*
X141519593Y-82420950D01*
X142467500Y-82609500D01*
X143415407Y-82420950D01*
X144219003Y-81884003D01*
X144755950Y-81080407D01*
X144944500Y-80132500D01*
X144755950Y-79184593D01*
X144405093Y-78659500D01*
X171019907Y-78659500D01*
X170669050Y-79184593D01*
M02*
