  0
SECTION
  2
HEADER
  9
$ACADVER
  1
AC1009
  9
$INSBASE
 10
0.0
 20
0.0
 30
0.0
  9
$EXTMIN
 10
0.0
 20
0.0
 30
0.0
  9
$EXTMAX
 10
0.0
 20
0.0
 30
0.0
  0
ENDSEC
  0
SECTION
  2
TABLES
  0
TABLE
  2
VPORT
 70
0
  0
ENDTAB
  0
TABLE
  2
LTYPE
 70
1
  0
LTYPE
  2
CONTINUOUS
 70
0
  3
Solid line
 72
65
 73
0
 40
0.0
  0
ENDTAB
  0
TABLE
  2
LAYER
 70
1
  0
LAYER
  2
0
 70
64
 62
7
  6
continuous
  0
ENDTAB
  0
TABLE
  2
STYLE
 70
1
  0
STYLE
  2
STANDARD
 70
0
 40
0
 41
1.0
 50
0.0
 71
0
 42
1
 3
ARIAL.TTF
 4

  0
ENDTAB
  0
TABLE
  2
VIEW
 70
0
  0
ENDTAB
  0
ENDSEC
  0
SECTION
  2
BLOCKS
  0
BLOCK
  8
GR_projection(DXF)
  2
SHAPE2DVIEW003
 70
0
 10
0.0
 20
0.0
 30
0.0
  3
SHAPE2DVIEW003
  0
CIRCLE
  8
GR_projection(DXF)
 62
0
 10
0.0
 20
8.92619311799e-15
 30
0.0
 40
71.0
  0
CIRCLE
  8
GR_projection(DXF)
 62
0
 10
18.84
 20
-33.06
 30
0.0
 40
2.0
  0
CIRCLE
  8
GR_projection(DXF)
 62
0
 10
29.6
 20
-33.06
 30
0.0
 40
2.0
  0
CIRCLE
  8
GR_projection(DXF)
 62
0
 10
33.4984
 20
-17.330099
 30
0.0
 40
2.0
  0
CIRCLE
  8
GR_projection(DXF)
 62
0
 10
18.84
 20
-22.3
 30
0.0
 40
2.0
  0
CIRCLE
  8
GR_projection(DXF)
 62
0
 10
40.36
 20
31.5
 30
0.0
 40
2.0
  0
CIRCLE
  8
GR_projection(DXF)
 62
0
 10
29.6
 20
31.5
 30
0.0
 40
2.0
  0
CIRCLE
  8
GR_projection(DXF)
 62
0
 10
33.4984
 20
17.669901
 30
0.0
 40
2.0
  0
CIRCLE
  8
GR_projection(DXF)
 62
0
 10
18.84
 20
20.74
 30
0.0
 40
2.0
  0
ARC
  8
GR_projection(DXF)
 62
0
 10
18.84
 20
31.5
 30
0.0
 40
2.0
 50
-180.0
 51
-0.0
  0
ARC
  8
GR_projection(DXF)
 62
0
 10
18.84
 20
31.5
 30
0.0
 40
2.0
 50
-0.0
 51
-180.0
  0
LINE
  8
GR_projection(DXF)
 62
0
 10
21.8084993726
 20
7.873551
 30
0.0
 11
1.80849937261
 21
7.873551
 31
0.0
  0
ARC
  8
GR_projection(DXF)
 62
0
 10
33.4984
 20
0.169901
 30
0.0
 40
14.0
 50
146.615099104
 51
-146.615099104
  0
LINE
  8
GR_projection(DXF)
 62
0
 10
1.80849937261
 20
7.873551
 30
0.0
 11
1.80849937261
 21
-7.533749
 31
0.0
  0
LINE
  8
GR_projection(DXF)
 62
0
 10
1.80849937261
 20
-7.533749
 30
0.0
 11
21.8084993726
 21
-7.533749
 31
0.0
  0
CIRCLE
  8
GR_projection(DXF)
 62
0
 10
-34.97
 20
31.5
 30
0.0
 40
2.0
  0
CIRCLE
  8
GR_projection(DXF)
 62
0
 10
-24.21
 20
31.5
 30
0.0
 40
2.0
  0
ARC
  8
GR_projection(DXF)
 62
0
 10
-13.45
 20
31.5
 30
0.0
 40
2.0
 50
-180.0
 51
-0.0
  0
ARC
  8
GR_projection(DXF)
 62
0
 10
-13.45
 20
31.5
 30
0.0
 40
2.0
 50
-0.0
 51
-180.0
  0
CIRCLE
  8
GR_projection(DXF)
 62
0
 10
8.08
 20
31.5
 30
0.0
 40
2.0
  0
CIRCLE
  8
GR_projection(DXF)
 62
0
 10
-2.68
 20
31.5
 30
0.0
 40
2.0
  0
CIRCLE
  8
GR_projection(DXF)
 62
0
 10
8.08
 20
20.74
 30
0.0
 40
2.0
  0
CIRCLE
  8
GR_projection(DXF)
 62
0
 10
-2.68
 20
20.74
 30
0.0
 40
2.0
  0
CIRCLE
  8
GR_projection(DXF)
 62
0
 10
-34.97
 20
-0.78
 30
0.0
 40
2.0
  0
CIRCLE
  8
GR_projection(DXF)
 62
0
 10
-34.97
 20
9.98
 30
0.0
 40
2.0
  0
CIRCLE
  8
GR_projection(DXF)
 62
0
 10
-34.97
 20
20.74
 30
0.0
 40
2.0
  0
CIRCLE
  8
GR_projection(DXF)
 62
0
 10
-24.21
 20
-0.78
 30
0.0
 40
2.0
  0
CIRCLE
  8
GR_projection(DXF)
 62
0
 10
-13.45
 20
20.74
 30
0.0
 40
2.0
  0
CIRCLE
  8
GR_projection(DXF)
 62
0
 10
-13.45
 20
9.98
 30
0.0
 40
2.0
  0
CIRCLE
  8
GR_projection(DXF)
 62
0
 10
-24.21
 20
20.74
 30
0.0
 40
2.0
  0
CIRCLE
  8
GR_projection(DXF)
 62
0
 10
-24.21
 20
9.98
 30
0.0
 40
2.0
  0
CIRCLE
  8
GR_projection(DXF)
 62
0
 10
-13.45
 20
-0.78
 30
0.0
 40
2.0
  0
CIRCLE
  8
GR_projection(DXF)
 62
0
 10
-34.97
 20
-33.06
 30
0.0
 40
2.0
  0
CIRCLE
  8
GR_projection(DXF)
 62
0
 10
-34.97
 20
-22.3
 30
0.0
 40
2.0
  0
CIRCLE
  8
GR_projection(DXF)
 62
0
 10
-24.21
 20
-22.3
 30
0.0
 40
2.0
  0
CIRCLE
  8
GR_projection(DXF)
 62
0
 10
-24.21
 20
-33.06
 30
0.0
 40
2.0
  0
CIRCLE
  8
GR_projection(DXF)
 62
0
 10
-34.97
 20
-11.54
 30
0.0
 40
2.0
  0
CIRCLE
  8
GR_projection(DXF)
 62
0
 10
-24.21
 20
-11.54
 30
0.0
 40
2.0
  0
CIRCLE
  8
GR_projection(DXF)
 62
0
 10
-13.45
 20
-11.54
 30
0.0
 40
2.0
  0
CIRCLE
  8
GR_projection(DXF)
 62
0
 10
-13.45
 20
-22.3
 30
0.0
 40
2.0
  0
CIRCLE
  8
GR_projection(DXF)
 62
0
 10
-13.45
 20
-33.06
 30
0.0
 40
2.0
  0
CIRCLE
  8
GR_projection(DXF)
 62
0
 10
8.08
 20
-33.06
 30
0.0
 40
2.0
  0
CIRCLE
  8
GR_projection(DXF)
 62
0
 10
-2.68
 20
-33.06
 30
0.0
 40
2.0
  0
CIRCLE
  8
GR_projection(DXF)
 62
0
 10
8.08
 20
-22.3
 30
0.0
 40
2.0
  0
CIRCLE
  8
GR_projection(DXF)
 62
0
 10
-2.68
 20
-22.3
 30
0.0
 40
2.0
  0
CIRCLE
  8
GR_projection(DXF)
 62
0
 10
-24.21
 20
42.26
 30
0.0
 40
2.0
  0
CIRCLE
  8
GR_projection(DXF)
 62
0
 10
-13.45
 20
42.26
 30
0.0
 40
2.0
  0
CIRCLE
  8
GR_projection(DXF)
 62
0
 10
8.08
 20
42.26
 30
0.0
 40
2.0
  0
CIRCLE
  8
GR_projection(DXF)
 62
0
 10
-2.68
 20
42.26
 30
0.0
 40
2.0
  0
CIRCLE
  8
GR_projection(DXF)
 62
0
 10
18.84
 20
42.26
 30
0.0
 40
2.0
  0
CIRCLE
  8
GR_projection(DXF)
 62
0
 10
-45.73
 20
20.74
 30
0.0
 40
2.0
  0
CIRCLE
  8
GR_projection(DXF)
 62
0
 10
-45.73
 20
9.98
 30
0.0
 40
2.0
  0
CIRCLE
  8
GR_projection(DXF)
 62
0
 10
-45.73
 20
-0.78
 30
0.0
 40
2.0
  0
CIRCLE
  8
GR_projection(DXF)
 62
0
 10
-45.73
 20
-22.3
 30
0.0
 40
2.0
  0
CIRCLE
  8
GR_projection(DXF)
 62
0
 10
-45.73
 20
-11.54
 30
0.0
 40
2.0
  0
CIRCLE
  8
GR_projection(DXF)
 62
0
 10
-13.45
 20
-43.82
 30
0.0
 40
2.0
  0
CIRCLE
  8
GR_projection(DXF)
 62
0
 10
-2.68
 20
-43.82
 30
0.0
 40
2.0
  0
CIRCLE
  8
GR_projection(DXF)
 62
0
 10
8.08
 20
-43.82
 30
0.0
 40
2.0
  0
CIRCLE
  8
GR_projection(DXF)
 62
0
 10
-24.21
 20
-43.82
 30
0.0
 40
2.0
  0
CIRCLE
  8
GR_projection(DXF)
 62
0
 10
18.84
 20
-43.82
 30
0.0
 40
2.0
  0
CIRCLE
  8
GR_projection(DXF)
 62
0
 10
-65.0
 20
0.0
 30
0.0
 40
2.0
  0
CIRCLE
  8
GR_projection(DXF)
 62
0
 10
0.0
 20
-65.0
 30
0.0
 40
2.0
  0
CIRCLE
  8
GR_projection(DXF)
 62
0
 10
0.0
 20
65.0
 30
0.0
 40
2.0
  0
CIRCLE
  8
GR_projection(DXF)
 62
0
 10
65.0
 20
0.0
 30
0.0
 40
2.0
  0
ENDBLK
  0
ENDSEC
  0
SECTION
  2
ENTITIES
  0
INSERT
  2
SHAPE2DVIEW003
  8
GR_projection(DXF)
 62
0
 10
0.0
 20
0.0
 30
0.0
  0
ENDSEC
  0
EOF
