  0
SECTION
  2
HEADER
  9
$ACADVER
  1
AC1009
  9
$INSBASE
 10
0.0
 20
0.0
 30
0.0
  9
$EXTMIN
 10
0.0
 20
0.0
 30
0.0
  9
$EXTMAX
 10
0.0
 20
0.0
 30
0.0
  0
ENDSEC
  0
SECTION
  2
TABLES
  0
TABLE
  2
VPORT
 70
0
  0
ENDTAB
  0
TABLE
  2
LTYPE
 70
1
  0
LTYPE
  2
CONTINUOUS
 70
0
  3
Solid line
 72
65
 73
0
 40
0.0
  0
ENDTAB
  0
TABLE
  2
LAYER
 70
1
  0
LAYER
  2
0
 70
64
 62
7
  6
continuous
  0
ENDTAB
  0
TABLE
  2
STYLE
 70
1
  0
STYLE
  2
STANDARD
 70
0
 40
0
 41
1.0
 50
0.0
 71
0
 42
1
 3
ARIAL.TTF
 4

  0
ENDTAB
  0
TABLE
  2
VIEW
 70
0
  0
ENDTAB
  0
ENDSEC
  0
SECTION
  2
BLOCKS
  0
BLOCK
  8
0
  2
SHAPE2DVIEW004
 70
0
 10
0.0
 20
0.0
 30
0.0
  3
SHAPE2DVIEW004
  0
POLYLINE
  8
0
 62
0
 70
0
 66
1
 10
0.0
 20
0.0
 30
0.0
  0
VERTEX
  8
0
 10
274.300744629
 20
396.409875488
 30
0.0
  0
VERTEX
  8
0
 10
274.300744629
 20
392.450077514
 30
0.0
  0
VERTEX
  8
0
 10
274.300744629
 20
390.809875488
 30
0.0
  0
SEQEND
  8
0
  0
LINE
  8
0
 62
0
 10
274.300744629
 20
424.809875488
 30
0.0
 11
274.300744629
 21
390.809875488
 31
0.0
  0
POLYLINE
  8
0
 62
0
 70
0
 66
1
 10
0.0
 20
0.0
 30
0.0
  0
VERTEX
  8
0
 10
274.300744629
 20
397.829875488
 30
0.0
  0
VERTEX
  8
0
 10
274.300744629
 20
399.079875488
 30
0.0
  0
SEQEND
  8
0
  0
POLYLINE
  8
0
 62
0
 70
0
 66
1
 10
0.0
 20
0.0
 30
0.0
  0
VERTEX
  8
0
 10
274.300744629
 20
396.579875488
 30
0.0
  0
VERTEX
  8
0
 10
274.300744629
 20
397.829875488
 30
0.0
  0
SEQEND
  8
0
  0
LINE
  8
0
 62
0
 10
274.300744629
 20
390.809875488
 30
0.0
 11
271.300744629
 21
390.809875488
 31
0.0
  0
LINE
  8
0
 62
0
 10
274.300744629
 20
424.809875488
 30
0.0
 11
271.300744629
 21
424.809875488
 31
0.0
  0
POLYLINE
  8
0
 62
0
 70
0
 66
1
 10
0.0
 20
0.0
 30
0.0
  0
VERTEX
  8
0
 10
271.300744629
 20
413.849875488
 30
0.0
  0
VERTEX
  8
0
 10
271.300744629
 20
415.460788192
 30
0.0
  0
VERTEX
  8
0
 10
271.300744629
 20
419.349875488
 30
0.0
  0
SEQEND
  8
0
  0
POLYLINE
  8
0
 62
0
 70
0
 66
1
 10
0.0
 20
0.0
 30
0.0
  0
VERTEX
  8
0
 10
271.300744629
 20
419.349875488
 30
0.0
  0
VERTEX
  8
0
 10
271.300744629
 20
422.997364489
 30
0.0
  0
VERTEX
  8
0
 10
271.300744629
 20
424.809875488
 30
0.0
  0
SEQEND
  8
0
  0
POLYLINE
  8
0
 62
0
 70
0
 66
1
 10
0.0
 20
0.0
 30
0.0
  0
VERTEX
  8
0
 10
271.300744629
 20
397.829875488
 30
0.0
  0
VERTEX
  8
0
 10
271.300744629
 20
401.718962785
 30
0.0
  0
VERTEX
  8
0
 10
271.300744629
 20
403.329875488
 30
0.0
  0
SEQEND
  8
0
  0
LINE
  8
0
 62
0
 10
274.300744629
 20
390.809875488
 30
0.0
 11
271.300744629
 21
390.809875488
 31
0.0
  0
LINE
  8
0
 62
0
 10
274.300744629
 20
424.809875488
 30
0.0
 11
271.300744629
 21
424.809875488
 31
0.0
  0
LINE
  8
0
 62
0
 10
271.300744629
 20
424.809875488
 30
0.0
 11
271.300744629
 21
390.809875488
 31
0.0
  0
POLYLINE
  8
0
 62
0
 70
0
 66
1
 10
0.0
 20
0.0
 30
0.0
  0
VERTEX
  8
0
 10
271.300744629
 20
424.809875488
 30
0.0
  0
VERTEX
  8
0
 10
271.300744629
 20
424.849875488
 30
0.0
  0
SEQEND
  8
0
  0
POLYLINE
  8
0
 62
0
 70
0
 66
1
 10
0.0
 20
0.0
 30
0.0
  0
VERTEX
  8
0
 10
259.300744629
 20
424.809875488
 30
0.0
  0
VERTEX
  8
0
 10
259.300744629
 20
424.849875488
 30
0.0
  0
SEQEND
  8
0
  0
POLYLINE
  8
0
 62
0
 70
0
 66
1
 10
0.0
 20
0.0
 30
0.0
  0
VERTEX
  8
0
 10
259.300744629
 20
413.849875488
 30
0.0
  0
VERTEX
  8
0
 10
259.300744629
 20
418.354782488
 30
0.0
  0
SEQEND
  8
0
  0
POLYLINE
  8
0
 62
0
 70
0
 66
1
 10
0.0
 20
0.0
 30
0.0
  0
VERTEX
  8
0
 10
259.300744629
 20
397.829875488
 30
0.0
  0
VERTEX
  8
0
 10
259.300744629
 20
401.718962785
 30
0.0
  0
VERTEX
  8
0
 10
259.300744629
 20
403.329875488
 30
0.0
  0
SEQEND
  8
0
  0
POLYLINE
  8
0
 62
0
 70
0
 66
1
 10
0.0
 20
0.0
 30
0.0
  0
VERTEX
  8
0
 10
259.300744629
 20
397.264968488
 30
0.0
  0
VERTEX
  8
0
 10
259.300744629
 20
397.829875488
 30
0.0
  0
SEQEND
  8
0
  0
LINE
  8
0
 62
0
 10
271.300744629
 20
390.809875488
 30
0.0
 11
233.300744629
 21
390.809875488
 31
0.0
  0
LINE
  8
0
 62
0
 10
271.300744629
 20
424.809875488
 30
0.0
 11
233.300744629
 21
424.809875488
 31
0.0
  0
LINE
  8
0
 62
0
 10
233.300744629
 20
390.809875488
 30
0.0
 11
233.300744629
 21
424.809875488
 31
0.0
  0
CIRCLE
  8
0
 62
0
 10
237.0071661
 20
421.203384209
 30
0.0
 40
1.5
  0
CIRCLE
  8
0
 62
0
 10
237.0071661
 20
394.883384209
 30
0.0
 40
1.5
  0
CIRCLE
  8
0
 62
0
 10
267.4971661
 20
394.883384209
 30
0.0
 40
1.5
  0
LINE
  8
0
 62
0
 10
240.106585629
 20
418.354782488
 30
0.0
 11
265.106585629
 21
418.354782488
 31
0.0
  0
LINE
  8
0
 62
0
 10
240.106585629
 20
397.264968488
 30
0.0
 11
240.106585629
 21
418.354782488
 31
0.0
  0
LINE
  8
0
 62
0
 10
265.106585629
 20
418.354782488
 30
0.0
 11
265.106585629
 21
397.264968488
 31
0.0
  0
LINE
  8
0
 62
0
 10
265.106585629
 20
397.264968488
 30
0.0
 11
240.106585629
 21
397.264968488
 31
0.0
  0
CIRCLE
  8
0
 62
0
 10
267.4971661
 20
421.203384209
 30
0.0
 40
1.5
  0
LINE
  8
0
 62
0
 10
265.106585629
 20
397.829875488
 30
0.0
 11
259.300744629
 21
397.829875488
 31
0.0
  0
LINE
  8
0
 62
0
 10
259.300744629
 20
413.849875488
 30
0.0
 11
265.106585629
 21
413.849875488
 31
0.0
  0
LINE
  8
0
 62
0
 10
259.300744629
 20
424.849875488
 30
0.0
 11
271.300744629
 21
424.849875488
 31
0.0
  0
LINE
  8
0
 62
0
 10
259.300744629
 20
403.329875488
 30
0.0
 11
265.106585629
 21
403.329875488
 31
0.0
  0
ENDBLK
  0
ENDSEC
  0
SECTION
  2
ENTITIES
  0
INSERT
  2
SHAPE2DVIEW004
  8
0
 62
0
 10
0.0
 20
0.0
 30
0.0
  0
ENDSEC
  0
EOF
