<?xml version="1.0" encoding="UTF-8" standalone="no"?>
<svg
   xmlns:dc="http://purl.org/dc/elements/1.1/"
   xmlns:cc="http://creativecommons.org/ns#"
   xmlns:rdf="http://www.w3.org/1999/02/22-rdf-syntax-ns#"
   xmlns:svg="http://www.w3.org/2000/svg"
   xmlns="http://www.w3.org/2000/svg"
   xmlns:sodipodi="http://sodipodi.sourceforge.net/DTD/sodipodi-0.dtd"
   xmlns:inkscape="http://www.inkscape.org/namespaces/inkscape"
   width="144.84mm"
   height="143.804660122mm"
   viewBox="0 0 144.84 143.804660122"
   version="1.1"
   id="svg3116"
   inkscape:version="0.48.4 r9939"
   sodipodi:docname="IS_intermediaire.dxf">
  <metadata
     id="metadata3245">
    <rdf:RDF>
      <cc:Work
         rdf:about="">
        <dc:format>image/svg+xml</dc:format>
        <dc:type
           rdf:resource="http://purl.org/dc/dcmitype/StillImage" />
        <dc:title></dc:title>
      </cc:Work>
    </rdf:RDF>
  </metadata>
  <defs
     id="defs3243" />
  <sodipodi:namedview
     pagecolor="#ffffff"
     bordercolor="#666666"
     borderopacity="1"
     objecttolerance="10"
     gridtolerance="10"
     guidetolerance="10"
     inkscape:pageopacity="0"
     inkscape:pageshadow="2"
     inkscape:window-width="1920"
     inkscape:window-height="1017"
     id="namedview3241"
     showgrid="false"
     inkscape:zoom="1.6289072"
     inkscape:cx="256.60629"
     inkscape:cy="254.77203"
     inkscape:window-x="-8"
     inkscape:window-y="-8"
     inkscape:window-maximized="1"
     inkscape:current-layer="svg3116" />
  <circle
     sodipodi:ry="71"
     sodipodi:rx="71"
     sodipodi:cy="8.9261933e-015"
     sodipodi:cx="0"
     d="M 71,0 C 71,39.212217 39.212217,71 0,71 -39.212217,71 -71,39.212217 -71,0 c 0,-39.212217 31.787783,-71 71,-71 39.212217,0 71,31.787783 71,71 z"
     id="circle3119"
     style="fill:none;stroke:#191919;stroke-width:0.34999999;stroke-miterlimit:4;stroke-dasharray:none"
     r="71"
     cy="8.9261933e-015"
     cx="0"
     transform="matrix(1,0,0,-1,72.42,71.90233)" />
  <circle
     sodipodi:ry="2"
     sodipodi:rx="2"
     sodipodi:cy="-33.060001"
     sodipodi:cx="18.84"
     d="m 20.84,-33.060001 c 0,1.104569 -0.89543,2 -2,2 -1.104569,0 -2,-0.895431 -2,-2 0,-1.10457 0.895431,-2 2,-2 1.10457,0 2,0.89543 2,2 z"
     id="circle3121"
     style="fill:none;stroke:#191919;stroke-width:0.34999999;stroke-miterlimit:4;stroke-dasharray:none"
     r="2"
     cy="-33.060001"
     cx="18.84"
     transform="matrix(1,0,0,-1,72.42,71.90233)" />
  <circle
     sodipodi:ry="2"
     sodipodi:rx="2"
     sodipodi:cy="-33.060001"
     sodipodi:cx="29.6"
     d="m 31.6,-33.060001 c 0,1.104569 -0.89543,2 -2,2 -1.104569,0 -2,-0.895431 -2,-2 0,-1.10457 0.895431,-2 2,-2 1.10457,0 2,0.89543 2,2 z"
     id="circle3123"
     style="fill:none;stroke:#191919;stroke-width:0.34999999;stroke-miterlimit:4;stroke-dasharray:none"
     r="2"
     cy="-33.060001"
     cx="29.6"
     transform="matrix(1,0,0,-1,72.42,71.90233)" />
  <circle
     sodipodi:ry="2"
     sodipodi:rx="2"
     sodipodi:cy="-17.330099"
     sodipodi:cx="33.498402"
     d="m 35.498402,-17.330099 c 0,1.104569 -0.895431,2 -2,2 -1.10457,0 -2,-0.895431 -2,-2 0,-1.10457 0.89543,-2 2,-2 1.104569,0 2,0.89543 2,2 z"
     id="circle3125"
     style="fill:none;stroke:#191919;stroke-width:0.34999999;stroke-miterlimit:4;stroke-dasharray:none"
     r="2"
     cy="-17.330099"
     cx="33.498402"
     transform="matrix(1,0,0,-1,72.42,71.90233)" />
  <circle
     sodipodi:ry="2"
     sodipodi:rx="2"
     sodipodi:cy="-22.299999"
     sodipodi:cx="18.84"
     d="m 20.84,-22.299999 c 0,1.104569 -0.89543,2 -2,2 -1.104569,0 -2,-0.895431 -2,-2 0,-1.10457 0.895431,-2 2,-2 1.10457,0 2,0.89543 2,2 z"
     id="circle3127"
     style="fill:none;stroke:#191919;stroke-width:0.34999999;stroke-miterlimit:4;stroke-dasharray:none"
     r="2"
     cy="-22.299999"
     cx="18.84"
     transform="matrix(1,0,0,-1,72.42,71.90233)" />
  <circle
     sodipodi:ry="2"
     sodipodi:rx="2"
     sodipodi:cy="31.5"
     sodipodi:cx="40.360001"
     d="m 42.360001,31.5 c 0,1.104569 -0.895431,2 -2,2 -1.10457,0 -2,-0.895431 -2,-2 0,-1.104569 0.89543,-2 2,-2 1.104569,0 2,0.895431 2,2 z"
     id="circle3129"
     style="fill:none;stroke:#191919;stroke-width:0.34999999;stroke-miterlimit:4;stroke-dasharray:none"
     r="2"
     cy="31.5"
     cx="40.360001"
     transform="matrix(1,0,0,-1,72.42,71.90233)" />
  <circle
     sodipodi:ry="2"
     sodipodi:rx="2"
     sodipodi:cy="31.5"
     sodipodi:cx="29.6"
     d="m 31.6,31.5 c 0,1.104569 -0.89543,2 -2,2 -1.104569,0 -2,-0.895431 -2,-2 0,-1.104569 0.895431,-2 2,-2 1.10457,0 2,0.895431 2,2 z"
     id="circle3131"
     style="fill:none;stroke:#191919;stroke-width:0.34999999;stroke-miterlimit:4;stroke-dasharray:none"
     r="2"
     cy="31.5"
     cx="29.6"
     transform="matrix(1,0,0,-1,72.42,71.90233)" />
  <circle
     sodipodi:ry="2"
     sodipodi:rx="2"
     sodipodi:cy="17.669901"
     sodipodi:cx="33.498402"
     d="m 35.498402,17.669901 c 0,1.104569 -0.895431,2 -2,2 -1.10457,0 -2,-0.895431 -2,-2 0,-1.10457 0.89543,-2 2,-2 1.104569,0 2,0.89543 2,2 z"
     id="circle3133"
     style="fill:none;stroke:#191919;stroke-width:0.34999999;stroke-miterlimit:4;stroke-dasharray:none"
     r="2"
     cy="17.669901"
     cx="33.498402"
     transform="matrix(1,0,0,-1,72.42,71.90233)" />
  <circle
     sodipodi:ry="2"
     sodipodi:rx="2"
     sodipodi:cy="20.74"
     sodipodi:cx="18.84"
     d="m 20.84,20.74 c 0,1.104569 -0.89543,2 -2,2 -1.104569,0 -2,-0.895431 -2,-2 0,-1.10457 0.895431,-2 2,-2 1.10457,0 2,0.89543 2,2 z"
     id="circle3135"
     style="fill:none;stroke:#191919;stroke-width:0.34999999;stroke-miterlimit:4;stroke-dasharray:none"
     r="2"
     cy="20.74"
     cx="18.84"
     transform="matrix(1,0,0,-1,72.42,71.90233)" />
  <path
     inkscape:connector-curvature="0"
     style="fill:none;stroke:#191919;stroke-width:0.34999999;stroke-miterlimit:4;stroke-dasharray:none"
     d="m 89.26,40.40233 a 2,2 0 0 0 4,0"
     id="Shape2DView003_nwe0009" />
  <path
     inkscape:connector-curvature="0"
     style="fill:none;stroke:#191919;stroke-width:0.34999999;stroke-miterlimit:4;stroke-dasharray:none"
     d="m 93.26,40.40233 a 2,2 0 1 0 -4,0"
     id="Shape2DView003_nwe0010" />
  <path
     inkscape:connector-curvature="0"
     style="fill:none;stroke:#191919;stroke-width:0.34999999;stroke-miterlimit:4;stroke-dasharray:none"
     d="m 74.228499,64.028779 0,15.4073"
     id="Shape2DView003_nwe0013" />
  <g
     id="g3311">
    <path
       id="Shape2DView003_nwe0011"
       d="m 94.228499,64.028779 -20,0"
       style="fill:none;stroke:#191919;stroke-width:0.34999999;stroke-miterlimit:4;stroke-dasharray:none"
       inkscape:connector-curvature="0" />
    <path
       id="Shape2DView003_nwe0012"
       d="m 94.228499,64.028779 a 14,14 0 1 1 0,15.4073"
       style="fill:none;stroke:#191919;stroke-width:0.34999999;stroke-miterlimit:4;stroke-dasharray:none"
       inkscape:connector-curvature="0" />
    <path
       id="Shape2DView003_nwe0014"
       d="m 74.228499,79.436079 20,0"
       style="fill:none;stroke:#191919;stroke-width:0.34999999;stroke-miterlimit:4;stroke-dasharray:none"
       inkscape:connector-curvature="0" />
  </g>
  <circle
     sodipodi:ry="2"
     sodipodi:rx="2"
     sodipodi:cy="31.5"
     sodipodi:cx="-34.970001"
     d="m -32.970001,31.5 c 0,1.104569 -0.895431,2 -2,2 -1.10457,0 -2,-0.895431 -2,-2 0,-1.104569 0.89543,-2 2,-2 1.104569,0 2,0.895431 2,2 z"
     id="circle3143"
     style="fill:none;stroke:#191919;stroke-width:0.34999999;stroke-miterlimit:4;stroke-dasharray:none"
     r="2"
     cy="31.5"
     cx="-34.970001"
     transform="matrix(1,0,0,-1,72.42,71.90233)" />
  <circle
     sodipodi:ry="2"
     sodipodi:rx="2"
     sodipodi:cy="31.5"
     sodipodi:cx="-24.209999"
     d="m -22.209999,31.5 c 0,1.104569 -0.895431,2 -2,2 -1.10457,0 -2,-0.895431 -2,-2 0,-1.104569 0.89543,-2 2,-2 1.104569,0 2,0.895431 2,2 z"
     id="circle3145"
     style="fill:none;stroke:#191919;stroke-width:0.34999999;stroke-miterlimit:4;stroke-dasharray:none"
     r="2"
     cy="31.5"
     cx="-24.209999"
     transform="matrix(1,0,0,-1,72.42,71.90233)" />
  <path
     inkscape:connector-curvature="0"
     style="fill:none;stroke:#191919;stroke-width:0.34999999;stroke-miterlimit:4;stroke-dasharray:none"
     d="m 56.97,40.40233 a 2,2 0 0 0 4,0"
     id="Shape2DView003_nwe0017" />
  <path
     inkscape:connector-curvature="0"
     style="fill:none;stroke:#191919;stroke-width:0.34999999;stroke-miterlimit:4;stroke-dasharray:none"
     d="m 60.97,40.40233 a 2,2 0 1 0 -4,0"
     id="Shape2DView003_nwe0018" />
  <circle
     sodipodi:ry="2"
     sodipodi:rx="2"
     sodipodi:cy="31.5"
     sodipodi:cx="8.0799999"
     d="m 10.08,31.5 c 0,1.104569 -0.8954306,2 -2.0000001,2 -1.1045695,0 -2,-0.895431 -2,-2 0,-1.104569 0.8954305,-2 2,-2 1.1045695,0 2.0000001,0.895431 2.0000001,2 z"
     id="circle3149"
     style="fill:none;stroke:#191919;stroke-width:0.34999999;stroke-miterlimit:4;stroke-dasharray:none"
     r="2"
     cy="31.5"
     cx="8.0799999"
     transform="matrix(1,0,0,-1,72.42,71.90233)" />
  <circle
     sodipodi:ry="2"
     sodipodi:rx="2"
     sodipodi:cy="31.5"
     sodipodi:cx="-2.6800001"
     d="m -0.68000007,31.5 c 0,1.104569 -0.89543053,2 -2.00000003,2 -1.1045695,0 -2,-0.895431 -2,-2 0,-1.104569 0.8954305,-2 2,-2 1.1045695,0 2.00000003,0.895431 2.00000003,2 z"
     id="circle3151"
     style="fill:none;stroke:#191919;stroke-width:0.34999999;stroke-miterlimit:4;stroke-dasharray:none"
     r="2"
     cy="31.5"
     cx="-2.6800001"
     transform="matrix(1,0,0,-1,72.42,71.90233)" />
  <circle
     sodipodi:ry="2"
     sodipodi:rx="2"
     sodipodi:cy="20.74"
     sodipodi:cx="8.0799999"
     d="m 10.08,20.74 c 0,1.104569 -0.8954306,2 -2.0000001,2 -1.1045695,0 -2,-0.895431 -2,-2 0,-1.10457 0.8954305,-2 2,-2 1.1045695,0 2.0000001,0.89543 2.0000001,2 z"
     id="circle3153"
     style="fill:none;stroke:#191919;stroke-width:0.34999999;stroke-miterlimit:4;stroke-dasharray:none"
     r="2"
     cy="20.74"
     cx="8.0799999"
     transform="matrix(1,0,0,-1,72.42,71.90233)" />
  <circle
     sodipodi:ry="2"
     sodipodi:rx="2"
     sodipodi:cy="20.74"
     sodipodi:cx="-2.6800001"
     d="m -0.68000007,20.74 c 0,1.104569 -0.89543053,2 -2.00000003,2 -1.1045695,0 -2,-0.895431 -2,-2 0,-1.10457 0.8954305,-2 2,-2 1.1045695,0 2.00000003,0.89543 2.00000003,2 z"
     id="circle3155"
     style="fill:none;stroke:#191919;stroke-width:0.34999999;stroke-miterlimit:4;stroke-dasharray:none"
     r="2"
     cy="20.74"
     cx="-2.6800001"
     transform="matrix(1,0,0,-1,72.42,71.90233)" />
  <circle
     sodipodi:ry="2"
     sodipodi:rx="2"
     sodipodi:cy="-0.77999997"
     sodipodi:cx="-34.970001"
     d="m -32.970001,-0.77999997 c 0,1.1045695 -0.895431,1.99999997 -2,1.99999997 -1.10457,0 -2,-0.89543047 -2,-1.99999997 0,-1.10456953 0.89543,-2.00000003 2,-2.00000003 1.104569,0 2,0.8954305 2,2.00000003 z"
     id="circle3157"
     style="fill:none;stroke:#191919;stroke-width:0.34999999;stroke-miterlimit:4;stroke-dasharray:none"
     r="2"
     cy="-0.77999997"
     cx="-34.970001"
     transform="matrix(1,0,0,-1,72.42,71.90233)" />
  <circle
     sodipodi:ry="2"
     sodipodi:rx="2"
     sodipodi:cy="9.9799995"
     sodipodi:cx="-34.970001"
     d="m -32.970001,9.9799995 c 0,1.1045695 -0.895431,2.0000005 -2,2.0000005 -1.10457,0 -2,-0.895431 -2,-2.0000005 0,-1.1045695 0.89543,-2 2,-2 1.104569,0 2,0.8954305 2,2 z"
     id="circle3159"
     style="fill:none;stroke:#191919;stroke-width:0.34999999;stroke-miterlimit:4;stroke-dasharray:none"
     r="2"
     cy="9.9799995"
     cx="-34.970001"
     transform="matrix(1,0,0,-1,72.42,71.90233)" />
  <circle
     sodipodi:ry="2"
     sodipodi:rx="2"
     sodipodi:cy="20.74"
     sodipodi:cx="-34.970001"
     d="m -32.970001,20.74 c 0,1.104569 -0.895431,2 -2,2 -1.10457,0 -2,-0.895431 -2,-2 0,-1.10457 0.89543,-2 2,-2 1.104569,0 2,0.89543 2,2 z"
     id="circle3161"
     style="fill:none;stroke:#191919;stroke-width:0.34999999;stroke-miterlimit:4;stroke-dasharray:none"
     r="2"
     cy="20.74"
     cx="-34.970001"
     transform="matrix(1,0,0,-1,72.42,71.90233)" />
  <circle
     sodipodi:ry="2"
     sodipodi:rx="2"
     sodipodi:cy="-0.77999997"
     sodipodi:cx="-24.209999"
     d="m -22.209999,-0.77999997 c 0,1.1045695 -0.895431,1.99999997 -2,1.99999997 -1.10457,0 -2,-0.89543047 -2,-1.99999997 0,-1.10456953 0.89543,-2.00000003 2,-2.00000003 1.104569,0 2,0.8954305 2,2.00000003 z"
     id="circle3163"
     style="fill:none;stroke:#191919;stroke-width:0.34999999;stroke-miterlimit:4;stroke-dasharray:none"
     r="2"
     cy="-0.77999997"
     cx="-24.209999"
     transform="matrix(1,0,0,-1,72.42,71.90233)" />
  <circle
     sodipodi:ry="2"
     sodipodi:rx="2"
     sodipodi:cy="20.74"
     sodipodi:cx="-13.45"
     d="m -11.45,20.74 c 0,1.104569 -0.89543,2 -2,2 -1.104569,0 -2,-0.895431 -2,-2 0,-1.10457 0.895431,-2 2,-2 1.10457,0 2,0.89543 2,2 z"
     id="circle3165"
     style="fill:none;stroke:#191919;stroke-width:0.34999999;stroke-miterlimit:4;stroke-dasharray:none"
     r="2"
     cy="20.74"
     cx="-13.45"
     transform="matrix(1,0,0,-1,72.42,71.90233)" />
  <circle
     sodipodi:ry="2"
     sodipodi:rx="2"
     sodipodi:cy="9.9799995"
     sodipodi:cx="-13.45"
     d="m -11.45,9.9799995 c 0,1.1045695 -0.89543,2.0000005 -2,2.0000005 -1.104569,0 -2,-0.895431 -2,-2.0000005 0,-1.1045695 0.895431,-2 2,-2 1.10457,0 2,0.8954305 2,2 z"
     id="circle3167"
     style="fill:none;stroke:#191919;stroke-width:0.34999999;stroke-miterlimit:4;stroke-dasharray:none"
     r="2"
     cy="9.9799995"
     cx="-13.45"
     transform="matrix(1,0,0,-1,72.42,71.90233)" />
  <circle
     sodipodi:ry="2"
     sodipodi:rx="2"
     sodipodi:cy="20.74"
     sodipodi:cx="-24.209999"
     d="m -22.209999,20.74 c 0,1.104569 -0.895431,2 -2,2 -1.10457,0 -2,-0.895431 -2,-2 0,-1.10457 0.89543,-2 2,-2 1.104569,0 2,0.89543 2,2 z"
     id="circle3169"
     style="fill:none;stroke:#191919;stroke-width:0.34999999;stroke-miterlimit:4;stroke-dasharray:none"
     r="2"
     cy="20.74"
     cx="-24.209999"
     transform="matrix(1,0,0,-1,72.42,71.90233)" />
  <circle
     sodipodi:ry="2"
     sodipodi:rx="2"
     sodipodi:cy="9.9799995"
     sodipodi:cx="-24.209999"
     d="m -22.209999,9.9799995 c 0,1.1045695 -0.895431,2.0000005 -2,2.0000005 -1.10457,0 -2,-0.895431 -2,-2.0000005 0,-1.1045695 0.89543,-2 2,-2 1.104569,0 2,0.8954305 2,2 z"
     id="circle3171"
     style="fill:none;stroke:#191919;stroke-width:0.34999999;stroke-miterlimit:4;stroke-dasharray:none"
     r="2"
     cy="9.9799995"
     cx="-24.209999"
     transform="matrix(1,0,0,-1,72.42,71.90233)" />
  <circle
     sodipodi:ry="2"
     sodipodi:rx="2"
     sodipodi:cy="-0.77999997"
     sodipodi:cx="-13.45"
     d="m -11.45,-0.77999997 c 0,1.1045695 -0.89543,1.99999997 -2,1.99999997 -1.104569,0 -2,-0.89543047 -2,-1.99999997 0,-1.10456953 0.895431,-2.00000003 2,-2.00000003 1.10457,0 2,0.8954305 2,2.00000003 z"
     id="circle3173"
     style="fill:none;stroke:#191919;stroke-width:0.34999999;stroke-miterlimit:4;stroke-dasharray:none"
     r="2"
     cy="-0.77999997"
     cx="-13.45"
     transform="matrix(1,0,0,-1,72.42,71.90233)" />
  <circle
     sodipodi:ry="2"
     sodipodi:rx="2"
     sodipodi:cy="-33.060001"
     sodipodi:cx="-34.970001"
     d="m -32.970001,-33.060001 c 0,1.104569 -0.895431,2 -2,2 -1.10457,0 -2,-0.895431 -2,-2 0,-1.10457 0.89543,-2 2,-2 1.104569,0 2,0.89543 2,2 z"
     id="circle3175"
     style="fill:none;stroke:#191919;stroke-width:0.34999999;stroke-miterlimit:4;stroke-dasharray:none"
     r="2"
     cy="-33.060001"
     cx="-34.970001"
     transform="matrix(1,0,0,-1,72.42,71.90233)" />
  <circle
     sodipodi:ry="2"
     sodipodi:rx="2"
     sodipodi:cy="-22.299999"
     sodipodi:cx="-34.970001"
     d="m -32.970001,-22.299999 c 0,1.104569 -0.895431,2 -2,2 -1.10457,0 -2,-0.895431 -2,-2 0,-1.10457 0.89543,-2 2,-2 1.104569,0 2,0.89543 2,2 z"
     id="circle3177"
     style="fill:none;stroke:#191919;stroke-width:0.34999999;stroke-miterlimit:4;stroke-dasharray:none"
     r="2"
     cy="-22.299999"
     cx="-34.970001"
     transform="matrix(1,0,0,-1,72.42,71.90233)" />
  <circle
     sodipodi:ry="2"
     sodipodi:rx="2"
     sodipodi:cy="-22.299999"
     sodipodi:cx="-24.209999"
     d="m -22.209999,-22.299999 c 0,1.104569 -0.895431,2 -2,2 -1.10457,0 -2,-0.895431 -2,-2 0,-1.10457 0.89543,-2 2,-2 1.104569,0 2,0.89543 2,2 z"
     id="circle3179"
     style="fill:none;stroke:#191919;stroke-width:0.34999999;stroke-miterlimit:4;stroke-dasharray:none"
     r="2"
     cy="-22.299999"
     cx="-24.209999"
     transform="matrix(1,0,0,-1,72.42,71.90233)" />
  <circle
     sodipodi:ry="2"
     sodipodi:rx="2"
     sodipodi:cy="-33.060001"
     sodipodi:cx="-24.209999"
     d="m -22.209999,-33.060001 c 0,1.104569 -0.895431,2 -2,2 -1.10457,0 -2,-0.895431 -2,-2 0,-1.10457 0.89543,-2 2,-2 1.104569,0 2,0.89543 2,2 z"
     id="circle3181"
     style="fill:none;stroke:#191919;stroke-width:0.34999999;stroke-miterlimit:4;stroke-dasharray:none"
     r="2"
     cy="-33.060001"
     cx="-24.209999"
     transform="matrix(1,0,0,-1,72.42,71.90233)" />
  <circle
     sodipodi:ry="2"
     sodipodi:rx="2"
     sodipodi:cy="-11.54"
     sodipodi:cx="-34.970001"
     d="m -32.970001,-11.54 c 0,1.10457 -0.895431,2 -2,2 -1.10457,0 -2,-0.89543 -2,-2 0,-1.104569 0.89543,-2 2,-2 1.104569,0 2,0.895431 2,2 z"
     id="circle3183"
     style="fill:none;stroke:#191919;stroke-width:0.34999999;stroke-miterlimit:4;stroke-dasharray:none"
     r="2"
     cy="-11.54"
     cx="-34.970001"
     transform="matrix(1,0,0,-1,72.42,71.90233)" />
  <circle
     sodipodi:ry="2"
     sodipodi:rx="2"
     sodipodi:cy="-11.54"
     sodipodi:cx="-24.209999"
     d="m -22.209999,-11.54 c 0,1.10457 -0.895431,2 -2,2 -1.10457,0 -2,-0.89543 -2,-2 0,-1.104569 0.89543,-2 2,-2 1.104569,0 2,0.895431 2,2 z"
     id="circle3185"
     style="fill:none;stroke:#191919;stroke-width:0.34999999;stroke-miterlimit:4;stroke-dasharray:none"
     r="2"
     cy="-11.54"
     cx="-24.209999"
     transform="matrix(1,0,0,-1,72.42,71.90233)" />
  <circle
     sodipodi:ry="2"
     sodipodi:rx="2"
     sodipodi:cy="-11.54"
     sodipodi:cx="-13.45"
     d="m -11.45,-11.54 c 0,1.10457 -0.89543,2 -2,2 -1.104569,0 -2,-0.89543 -2,-2 0,-1.104569 0.895431,-2 2,-2 1.10457,0 2,0.895431 2,2 z"
     id="circle3187"
     style="fill:none;stroke:#191919;stroke-width:0.34999999;stroke-miterlimit:4;stroke-dasharray:none"
     r="2"
     cy="-11.54"
     cx="-13.45"
     transform="matrix(1,0,0,-1,72.42,71.90233)" />
  <circle
     sodipodi:ry="2"
     sodipodi:rx="2"
     sodipodi:cy="-22.299999"
     sodipodi:cx="-13.45"
     d="m -11.45,-22.299999 c 0,1.104569 -0.89543,2 -2,2 -1.104569,0 -2,-0.895431 -2,-2 0,-1.10457 0.895431,-2 2,-2 1.10457,0 2,0.89543 2,2 z"
     id="circle3189"
     style="fill:none;stroke:#191919;stroke-width:0.34999999;stroke-miterlimit:4;stroke-dasharray:none"
     r="2"
     cy="-22.299999"
     cx="-13.45"
     transform="matrix(1,0,0,-1,72.42,71.90233)" />
  <circle
     sodipodi:ry="2"
     sodipodi:rx="2"
     sodipodi:cy="-33.060001"
     sodipodi:cx="-13.45"
     d="m -11.45,-33.060001 c 0,1.104569 -0.89543,2 -2,2 -1.104569,0 -2,-0.895431 -2,-2 0,-1.10457 0.895431,-2 2,-2 1.10457,0 2,0.89543 2,2 z"
     id="circle3191"
     style="fill:none;stroke:#191919;stroke-width:0.34999999;stroke-miterlimit:4;stroke-dasharray:none"
     r="2"
     cy="-33.060001"
     cx="-13.45"
     transform="matrix(1,0,0,-1,72.42,71.90233)" />
  <circle
     sodipodi:ry="2"
     sodipodi:rx="2"
     sodipodi:cy="-33.060001"
     sodipodi:cx="8.0799999"
     d="m 10.08,-33.060001 c 0,1.104569 -0.8954306,2 -2.0000001,2 -1.1045695,0 -2,-0.895431 -2,-2 0,-1.10457 0.8954305,-2 2,-2 1.1045695,0 2.0000001,0.89543 2.0000001,2 z"
     id="circle3193"
     style="fill:none;stroke:#191919;stroke-width:0.34999999;stroke-miterlimit:4;stroke-dasharray:none"
     r="2"
     cy="-33.060001"
     cx="8.0799999"
     transform="matrix(1,0,0,-1,72.42,71.90233)" />
  <circle
     sodipodi:ry="2"
     sodipodi:rx="2"
     sodipodi:cy="-33.060001"
     sodipodi:cx="-2.6800001"
     d="m -0.68000007,-33.060001 c 0,1.104569 -0.89543053,2 -2.00000003,2 -1.1045695,0 -2,-0.895431 -2,-2 0,-1.10457 0.8954305,-2 2,-2 1.1045695,0 2.00000003,0.89543 2.00000003,2 z"
     id="circle3195"
     style="fill:none;stroke:#191919;stroke-width:0.34999999;stroke-miterlimit:4;stroke-dasharray:none"
     r="2"
     cy="-33.060001"
     cx="-2.6800001"
     transform="matrix(1,0,0,-1,72.42,71.90233)" />
  <circle
     sodipodi:ry="2"
     sodipodi:rx="2"
     sodipodi:cy="-22.299999"
     sodipodi:cx="8.0799999"
     d="m 10.08,-22.299999 c 0,1.104569 -0.8954306,2 -2.0000001,2 -1.1045695,0 -2,-0.895431 -2,-2 0,-1.10457 0.8954305,-2 2,-2 1.1045695,0 2.0000001,0.89543 2.0000001,2 z"
     id="circle3197"
     style="fill:none;stroke:#191919;stroke-width:0.34999999;stroke-miterlimit:4;stroke-dasharray:none"
     r="2"
     cy="-22.299999"
     cx="8.0799999"
     transform="matrix(1,0,0,-1,72.42,71.90233)" />
  <circle
     sodipodi:ry="2"
     sodipodi:rx="2"
     sodipodi:cy="-22.299999"
     sodipodi:cx="-2.6800001"
     d="m -0.68000007,-22.299999 c 0,1.104569 -0.89543053,2 -2.00000003,2 -1.1045695,0 -2,-0.895431 -2,-2 0,-1.10457 0.8954305,-2 2,-2 1.1045695,0 2.00000003,0.89543 2.00000003,2 z"
     id="circle3199"
     style="fill:none;stroke:#191919;stroke-width:0.34999999;stroke-miterlimit:4;stroke-dasharray:none"
     r="2"
     cy="-22.299999"
     cx="-2.6800001"
     transform="matrix(1,0,0,-1,72.42,71.90233)" />
  <circle
     sodipodi:ry="2"
     sodipodi:rx="2"
     sodipodi:cy="42.259998"
     sodipodi:cx="-24.209999"
     d="m -22.209999,42.259998 c 0,1.10457 -0.895431,2 -2,2 -1.10457,0 -2,-0.89543 -2,-2 0,-1.104569 0.89543,-2 2,-2 1.104569,0 2,0.895431 2,2 z"
     id="circle3201"
     style="fill:none;stroke:#191919;stroke-width:0.34999999;stroke-miterlimit:4;stroke-dasharray:none"
     r="2"
     cy="42.259998"
     cx="-24.209999"
     transform="matrix(1,0,0,-1,72.42,71.90233)" />
  <circle
     sodipodi:ry="2"
     sodipodi:rx="2"
     sodipodi:cy="42.259998"
     sodipodi:cx="-13.45"
     d="m -11.45,42.259998 c 0,1.10457 -0.89543,2 -2,2 -1.104569,0 -2,-0.89543 -2,-2 0,-1.104569 0.895431,-2 2,-2 1.10457,0 2,0.895431 2,2 z"
     id="circle3203"
     style="fill:none;stroke:#191919;stroke-width:0.34999999;stroke-miterlimit:4;stroke-dasharray:none"
     r="2"
     cy="42.259998"
     cx="-13.45"
     transform="matrix(1,0,0,-1,72.42,71.90233)" />
  <circle
     sodipodi:ry="2"
     sodipodi:rx="2"
     sodipodi:cy="42.259998"
     sodipodi:cx="8.0799999"
     d="m 10.08,42.259998 c 0,1.10457 -0.8954306,2 -2.0000001,2 -1.1045695,0 -2,-0.89543 -2,-2 0,-1.104569 0.8954305,-2 2,-2 1.1045695,0 2.0000001,0.895431 2.0000001,2 z"
     id="circle3205"
     style="fill:none;stroke:#191919;stroke-width:0.34999999;stroke-miterlimit:4;stroke-dasharray:none"
     r="2"
     cy="42.259998"
     cx="8.0799999"
     transform="matrix(1,0,0,-1,72.42,71.90233)" />
  <circle
     sodipodi:ry="2"
     sodipodi:rx="2"
     sodipodi:cy="42.259998"
     sodipodi:cx="-2.6800001"
     d="m -0.68000007,42.259998 c 0,1.10457 -0.89543053,2 -2.00000003,2 -1.1045695,0 -2,-0.89543 -2,-2 0,-1.104569 0.8954305,-2 2,-2 1.1045695,0 2.00000003,0.895431 2.00000003,2 z"
     id="circle3207"
     style="fill:none;stroke:#191919;stroke-width:0.34999999;stroke-miterlimit:4;stroke-dasharray:none"
     r="2"
     cy="42.259998"
     cx="-2.6800001"
     transform="matrix(1,0,0,-1,72.42,71.90233)" />
  <circle
     sodipodi:ry="2"
     sodipodi:rx="2"
     sodipodi:cy="42.259998"
     sodipodi:cx="18.84"
     d="m 20.84,42.259998 c 0,1.10457 -0.89543,2 -2,2 -1.104569,0 -2,-0.89543 -2,-2 0,-1.104569 0.895431,-2 2,-2 1.10457,0 2,0.895431 2,2 z"
     id="circle3209"
     style="fill:none;stroke:#191919;stroke-width:0.34999999;stroke-miterlimit:4;stroke-dasharray:none"
     r="2"
     cy="42.259998"
     cx="18.84"
     transform="matrix(1,0,0,-1,72.42,71.90233)" />
  <circle
     sodipodi:ry="2"
     sodipodi:rx="2"
     sodipodi:cy="20.74"
     sodipodi:cx="-45.73"
     d="m -43.73,20.74 c 0,1.104569 -0.89543,2 -2,2 -1.104569,0 -2,-0.895431 -2,-2 0,-1.10457 0.895431,-2 2,-2 1.10457,0 2,0.89543 2,2 z"
     id="circle3211"
     style="fill:none;stroke:#191919;stroke-width:0.34999999;stroke-miterlimit:4;stroke-dasharray:none"
     r="2"
     cy="20.74"
     cx="-45.73"
     transform="matrix(1,0,0,-1,72.42,71.90233)" />
  <circle
     sodipodi:ry="2"
     sodipodi:rx="2"
     sodipodi:cy="9.9799995"
     sodipodi:cx="-45.73"
     d="m -43.73,9.9799995 c 0,1.1045695 -0.89543,2.0000005 -2,2.0000005 -1.104569,0 -2,-0.895431 -2,-2.0000005 0,-1.1045695 0.895431,-2 2,-2 1.10457,0 2,0.8954305 2,2 z"
     id="circle3213"
     style="fill:none;stroke:#191919;stroke-width:0.34999999;stroke-miterlimit:4;stroke-dasharray:none"
     r="2"
     cy="9.9799995"
     cx="-45.73"
     transform="matrix(1,0,0,-1,72.42,71.90233)" />
  <circle
     sodipodi:ry="2"
     sodipodi:rx="2"
     sodipodi:cy="-0.77999997"
     sodipodi:cx="-45.73"
     d="m -43.73,-0.77999997 c 0,1.1045695 -0.89543,1.99999997 -2,1.99999997 -1.104569,0 -2,-0.89543047 -2,-1.99999997 0,-1.10456953 0.895431,-2.00000003 2,-2.00000003 1.10457,0 2,0.8954305 2,2.00000003 z"
     id="circle3215"
     style="fill:none;stroke:#191919;stroke-width:0.34999999;stroke-miterlimit:4;stroke-dasharray:none"
     r="2"
     cy="-0.77999997"
     cx="-45.73"
     transform="matrix(1,0,0,-1,72.42,71.90233)" />
  <circle
     sodipodi:ry="2"
     sodipodi:rx="2"
     sodipodi:cy="-22.299999"
     sodipodi:cx="-45.73"
     d="m -43.73,-22.299999 c 0,1.104569 -0.89543,2 -2,2 -1.104569,0 -2,-0.895431 -2,-2 0,-1.10457 0.895431,-2 2,-2 1.10457,0 2,0.89543 2,2 z"
     id="circle3217"
     style="fill:none;stroke:#191919;stroke-width:0.34999999;stroke-miterlimit:4;stroke-dasharray:none"
     r="2"
     cy="-22.299999"
     cx="-45.73"
     transform="matrix(1,0,0,-1,72.42,71.90233)" />
  <circle
     sodipodi:ry="2"
     sodipodi:rx="2"
     sodipodi:cy="-11.54"
     sodipodi:cx="-45.73"
     d="m -43.73,-11.54 c 0,1.10457 -0.89543,2 -2,2 -1.104569,0 -2,-0.89543 -2,-2 0,-1.104569 0.895431,-2 2,-2 1.10457,0 2,0.895431 2,2 z"
     id="circle3219"
     style="fill:none;stroke:#191919;stroke-width:0.34999999;stroke-miterlimit:4;stroke-dasharray:none"
     r="2"
     cy="-11.54"
     cx="-45.73"
     transform="matrix(1,0,0,-1,72.42,71.90233)" />
  <circle
     sodipodi:ry="2"
     sodipodi:rx="2"
     sodipodi:cy="-43.82"
     sodipodi:cx="-13.45"
     d="m -11.45,-43.82 c 0,1.10457 -0.89543,2 -2,2 -1.104569,0 -2,-0.89543 -2,-2 0,-1.104569 0.895431,-2 2,-2 1.10457,0 2,0.895431 2,2 z"
     id="circle3221"
     style="fill:none;stroke:#191919;stroke-width:0.34999999;stroke-miterlimit:4;stroke-dasharray:none"
     r="2"
     cy="-43.82"
     cx="-13.45"
     transform="matrix(1,0,0,-1,72.42,71.90233)" />
  <circle
     sodipodi:ry="2"
     sodipodi:rx="2"
     sodipodi:cy="-43.82"
     sodipodi:cx="-2.6800001"
     d="m -0.68000007,-43.82 c 0,1.10457 -0.89543053,2 -2.00000003,2 -1.1045695,0 -2,-0.89543 -2,-2 0,-1.104569 0.8954305,-2 2,-2 1.1045695,0 2.00000003,0.895431 2.00000003,2 z"
     id="circle3223"
     style="fill:none;stroke:#191919;stroke-width:0.34999999;stroke-miterlimit:4;stroke-dasharray:none"
     r="2"
     cy="-43.82"
     cx="-2.6800001"
     transform="matrix(1,0,0,-1,72.42,71.90233)" />
  <circle
     sodipodi:ry="2"
     sodipodi:rx="2"
     sodipodi:cy="-43.82"
     sodipodi:cx="8.0799999"
     d="m 10.08,-43.82 c 0,1.10457 -0.8954306,2 -2.0000001,2 -1.1045695,0 -2,-0.89543 -2,-2 0,-1.104569 0.8954305,-2 2,-2 1.1045695,0 2.0000001,0.895431 2.0000001,2 z"
     id="circle3225"
     style="fill:none;stroke:#191919;stroke-width:0.34999999;stroke-miterlimit:4;stroke-dasharray:none"
     r="2"
     cy="-43.82"
     cx="8.0799999"
     transform="matrix(1,0,0,-1,72.42,71.90233)" />
  <circle
     sodipodi:ry="2"
     sodipodi:rx="2"
     sodipodi:cy="-43.82"
     sodipodi:cx="-24.209999"
     d="m -22.209999,-43.82 c 0,1.10457 -0.895431,2 -2,2 -1.10457,0 -2,-0.89543 -2,-2 0,-1.104569 0.89543,-2 2,-2 1.104569,0 2,0.895431 2,2 z"
     id="circle3227"
     style="fill:none;stroke:#191919;stroke-width:0.34999999;stroke-miterlimit:4;stroke-dasharray:none"
     r="2"
     cy="-43.82"
     cx="-24.209999"
     transform="matrix(1,0,0,-1,72.42,71.90233)" />
  <circle
     sodipodi:ry="2"
     sodipodi:rx="2"
     sodipodi:cy="-43.82"
     sodipodi:cx="18.84"
     d="m 20.84,-43.82 c 0,1.10457 -0.89543,2 -2,2 -1.104569,0 -2,-0.89543 -2,-2 0,-1.104569 0.895431,-2 2,-2 1.10457,0 2,0.895431 2,2 z"
     id="circle3229"
     style="fill:none;stroke:#191919;stroke-width:0.34999999;stroke-miterlimit:4;stroke-dasharray:none"
     r="2"
     cy="-43.82"
     cx="18.84"
     transform="matrix(1,0,0,-1,72.42,71.90233)" />
  <circle
     sodipodi:ry="2"
     sodipodi:rx="2"
     sodipodi:cy="0"
     sodipodi:cx="-65"
     d="m -63,0 c 0,1.1045695 -0.895431,2 -2,2 -1.104569,0 -2,-0.8954305 -2,-2 0,-1.1045695 0.895431,-2 2,-2 1.104569,0 2,0.8954305 2,2 z"
     id="circle3231"
     style="fill:none;stroke:#191919;stroke-width:0.34999999;stroke-miterlimit:4;stroke-dasharray:none"
     r="2"
     cy="0"
     cx="-65"
     transform="matrix(1,0,0,-1,72.42,71.90233)" />
  <circle
     sodipodi:ry="2"
     sodipodi:rx="2"
     sodipodi:cy="-65"
     sodipodi:cx="0"
     d="m 2,-65 c 0,1.104569 -0.8954305,2 -2,2 -1.1045695,0 -2,-0.895431 -2,-2 0,-1.104569 0.8954305,-2 2,-2 1.1045695,0 2,0.895431 2,2 z"
     id="circle3233"
     style="fill:none;stroke:#191919;stroke-width:0.34999999;stroke-miterlimit:4;stroke-dasharray:none"
     r="2"
     cy="-65"
     cx="0"
     transform="matrix(1,0,0,-1,72.42,71.90233)" />
  <circle
     sodipodi:ry="2"
     sodipodi:rx="2"
     sodipodi:cy="65"
     sodipodi:cx="0"
     d="m 2,65 c 0,1.104569 -0.8954305,2 -2,2 -1.1045695,0 -2,-0.895431 -2,-2 0,-1.104569 0.8954305,-2 2,-2 1.1045695,0 2,0.895431 2,2 z"
     id="circle3235"
     style="fill:none;stroke:#191919;stroke-width:0.34999999;stroke-miterlimit:4;stroke-dasharray:none"
     r="2"
     cy="65"
     cx="0"
     transform="matrix(1,0,0,-1,72.42,71.90233)" />
  <circle
     sodipodi:ry="2"
     sodipodi:rx="2"
     sodipodi:cy="0"
     sodipodi:cx="65"
     d="m 67,0 c 0,1.1045695 -0.895431,2 -2,2 -1.104569,0 -2,-0.8954305 -2,-2 0,-1.1045695 0.895431,-2 2,-2 1.104569,0 2,0.8954305 2,2 z"
     id="circle3237"
     style="fill:none;stroke:#191919;stroke-width:0.34999999;stroke-miterlimit:4;stroke-dasharray:none"
     r="2"
     cy="0"
     cx="65"
     transform="matrix(1,0,0,-1,72.42,71.90233)" />
</svg>
