<?xml version="1.0" standalone="no"?>
 <!DOCTYPE svg PUBLIC "-//W3C//DTD SVG 1.1//EN" 
 "http://www.w3.org/Graphics/SVG/1.1/DTD/svg11.dtd"> 
<svg xmlns="http://www.w3.org/2000/svg" version="1.1" 
    width="29.7002cm" height="21.0007cm" viewBox="0 0 116930 82680 ">
<title>SVG Picture created as scanConnect-F.SilkS.svg date 2016/01/19 21:13:02 </title>
  <desc>Picture generated by PCBNEW </desc>
<g style="fill:#000000; fill-opacity:1;stroke:#000000; stroke-opacity:1;
stroke-linecap:round; stroke-linejoin:round; "
 transform="translate(0 0) scale(1 1)">
</g>
<g style="fill:#000000; fill-opacity:0.0; 
stroke:#000000; stroke-width:-0.000393701; stroke-opacity:1; 
stroke-linecap:round; stroke-linejoin:round;">
</g>
<g style="fill:#000000; fill-opacity:0.0; 
stroke:#000000; stroke-width:59.0551; stroke-opacity:1; 
stroke-linecap:round; stroke-linejoin:round;">
<path d="M57250 42250
L57250 42500
" />
<path d="M57250 42500
L61750 42500
" />
<path d="M61750 42500
L61750 42250
" />
<path d="M57250 42250
L57250 37750
" />
<path d="M57250 37750
L61750 37750
" />
<path d="M61750 37750
L61750 42250
" />
<path d="M61750 42500
L57250 42500
" />
<path d="M66250 34000
L63250 34000
" />
<path d="M66250 35000
L63250 35000
" />
<path d="M67360 35110
L66750 35110
" />
<path d="M63250 34000
L63250 35000
" />
<path d="M66250 35000
L66250 34000
" />
<path d="M66750 33889
L67360 33889
" />
<path d="M67360 33889
L67360 35110
" />
<path d="M60500 34000
L57500 34000
" />
<path d="M60500 35000
L57500 35000
" />
<path d="M61610 35110
L61000 35110
" />
<path d="M57500 34000
L57500 35000
" />
<path d="M60500 35000
L60500 34000
" />
<path d="M61000 33889
L61610 33889
" />
<path d="M61610 33889
L61610 35110
" />
<path d="M62250 42250
L62250 42500
" />
<path d="M62250 42500
L66750 42500
" />
<path d="M66750 42500
L66750 42250
" />
<path d="M62250 42250
L62250 37750
" />
<path d="M62250 37750
L66750 37750
" />
<path d="M66750 37750
L66750 42250
" />
<path d="M66750 42500
L62250 42500
" />
<path d="M59209 40928
L59209 40534
L59359 40534
L59396 40553
L59415 40571
L59434 40609
L59434 40665
L59415 40703
L59396 40721
L59359 40740
L59209 40740
" />
<path d="M59771 40665
L59771 40928
" />
<path d="M59678 40515
L59584 40796
L59828 40796
" />
<path d="M57344 42571
L57362 42553
L57400 42534
L57494 42534
L57531 42553
L57550 42571
L57568 42609
L57568 42646
L57550 42703
L57325 42928
L57568 42928
" />
<path d="M57981 42665
L58131 42665
" />
<path d="M58037 42534
L58037 42871
L58056 42909
L58093 42928
L58131 42928
" />
<path d="M58262 42928
L58262 42665
" />
<path d="M58262 42740
L58281 42703
L58300 42684
L58337 42665
L58375 42665
" />
<path d="M58562 42928
L58525 42909
L58506 42890
L58487 42853
L58487 42740
L58506 42703
L58525 42684
L58562 42665
L58618 42665
L58656 42684
L58675 42703
L58693 42740
L58693 42853
L58675 42890
L58656 42909
L58618 42928
L58562 42928
" />
<path d="M59031 42665
L59031 42928
" />
<path d="M58862 42665
L58862 42871
L58881 42909
L58918 42928
L58975 42928
L59012 42909
L59031 42890
" />
<path d="M59200 42909
L59237 42928
L59312 42928
L59350 42909
L59368 42871
L59368 42853
L59350 42815
L59312 42796
L59256 42796
L59218 42778
L59200 42740
L59200 42721
L59218 42684
L59256 42665
L59312 42665
L59350 42684
" />
<path d="M59799 42534
L60043 42534
L59912 42684
L59968 42684
L60006 42703
L60024 42721
L60043 42759
L60043 42853
L60024 42890
L60006 42909
L59968 42928
L59856 42928
L59818 42909
L59799 42890
" />
<path d="M60212 42890
L60231 42909
L60212 42928
L60193 42909
L60212 42890
L60212 42928
" />
<path d="M60381 42571
L60399 42553
L60437 42534
L60531 42534
L60568 42553
L60587 42571
L60606 42609
L60606 42646
L60587 42703
L60362 42928
L60606 42928
" />
<path d="M60774 42928
L60774 42665
" />
<path d="M60774 42703
L60793 42684
L60831 42665
L60887 42665
L60924 42684
L60943 42721
L60943 42928
" />
<path d="M60943 42721
L60962 42684
L60999 42665
L61056 42665
L61093 42684
L61112 42721
L61112 42928
" />
<path d="M61299 42928
L61299 42665
" />
<path d="M61299 42703
L61318 42684
L61356 42665
L61412 42665
L61449 42684
L61468 42721
L61468 42928
" />
<path d="M61468 42721
L61487 42684
L61524 42665
L61580 42665
L61618 42684
L61637 42721
L61637 42928
" />
<path d="M68935 34790
L68542 34790
L68542 34640
L68561 34603
L68579 34584
L68617 34565
L68673 34565
L68711 34584
L68729 34603
L68748 34640
L68748 34790
" />
<path d="M68935 34190
L68935 34415
" />
<path d="M68935 34303
L68542 34303
L68598 34340
L68636 34378
L68654 34415
" />
<path d="M63185 34790
L62792 34790
L62792 34640
L62811 34603
L62829 34584
L62867 34565
L62923 34565
L62961 34584
L62979 34603
L62998 34640
L62998 34790
" />
<path d="M62829 34415
L62811 34396
L62792 34359
L62792 34265
L62811 34228
L62829 34209
L62867 34190
L62904 34190
L62961 34209
L63185 34434
L63185 34190
" />
<path d="M64209 40928
L64209 40534
L64359 40534
L64396 40553
L64415 40571
L64434 40609
L64434 40665
L64415 40703
L64396 40721
L64359 40740
L64209 40740
" />
<path d="M64565 40534
L64809 40534
L64678 40684
L64734 40684
L64771 40703
L64790 40721
L64809 40759
L64809 40853
L64790 40890
L64771 40909
L64734 40928
L64621 40928
L64584 40909
L64565 40890
" />
<path d="M62344 42571
L62362 42553
L62400 42534
L62494 42534
L62531 42553
L62550 42571
L62568 42609
L62568 42646
L62550 42703
L62325 42928
L62568 42928
" />
<path d="M62981 42665
L63131 42665
" />
<path d="M63037 42534
L63037 42871
L63056 42909
L63093 42928
L63131 42928
" />
<path d="M63262 42928
L63262 42665
" />
<path d="M63262 42740
L63281 42703
L63300 42684
L63337 42665
L63375 42665
" />
<path d="M63562 42928
L63525 42909
L63506 42890
L63487 42853
L63487 42740
L63506 42703
L63525 42684
L63562 42665
L63618 42665
L63656 42684
L63675 42703
L63693 42740
L63693 42853
L63675 42890
L63656 42909
L63618 42928
L63562 42928
" />
<path d="M64031 42665
L64031 42928
" />
<path d="M63862 42665
L63862 42871
L63881 42909
L63918 42928
L63975 42928
L64012 42909
L64031 42890
" />
<path d="M64200 42909
L64237 42928
L64312 42928
L64350 42909
L64368 42871
L64368 42853
L64350 42815
L64312 42796
L64256 42796
L64218 42778
L64200 42740
L64200 42721
L64218 42684
L64256 42665
L64312 42665
L64350 42684
" />
<path d="M64799 42534
L65043 42534
L64912 42684
L64968 42684
L65006 42703
L65024 42721
L65043 42759
L65043 42853
L65024 42890
L65006 42909
L64968 42928
L64856 42928
L64818 42909
L64799 42890
" />
<path d="M65212 42890
L65231 42909
L65212 42928
L65193 42909
L65212 42890
L65212 42928
" />
<path d="M65381 42571
L65399 42553
L65437 42534
L65531 42534
L65568 42553
L65587 42571
L65606 42609
L65606 42646
L65587 42703
L65362 42928
L65606 42928
" />
<path d="M65774 42928
L65774 42665
" />
<path d="M65774 42703
L65793 42684
L65831 42665
L65887 42665
L65924 42684
L65943 42721
L65943 42928
" />
<path d="M65943 42721
L65962 42684
L65999 42665
L66056 42665
L66093 42684
L66112 42721
L66112 42928
" />
<path d="M66299 42928
L66299 42665
" />
<path d="M66299 42703
L66318 42684
L66356 42665
L66412 42665
L66449 42684
L66468 42721
L66468 42928
" />
<path d="M66468 42721
L66487 42684
L66524 42665
L66580 42665
L66618 42684
L66637 42721
L66637 42928
" />
</g> 
</svg>
